<svg xmlns="http://www.w3.org/2000/svg" enable-background="new 0 0 192 192" height="192" viewBox="0 0 192 192" width="192"><rect fill="none" height="192" width="192"/><g><g><path d="m103.17 134.14-10.75.51c-7.58-5.63-11.77-8.4-19.45-19.45-8.09-11.57-11.88-16.28-14.33-25.6l5.94-10.65s-5.53-56.93-5.02-57.23c-.31.2-.51.31-.82.51-35.12 22.01-35.63 69.42-8.6 108.02 27.03 38.6 71.67 54.37 104.33 28.77.2-.2.51-.41.72-.61-.42.4-52.02-24.27-52.02-24.27zM42.55 90.93c-.1.1-.2.1-.2.1l.2-.1zm41.78 60 .2-.2-.2.2z" fill="#0057CC"/><path d="M68.56 118.16c7.68 11.06 16.28 19.97 23.86 25.6l10.85-9.62c-6.96-5.63-14.44-12.7-23.04-24.98-8.6-12.29-12.59-21.71-15.56-30.2l-12.29 6.65c2.36 9.31 7.99 20.98 16.18 32.55z" fill="#B0C6FF"/><path d="M58.32 22.54c-4.71 3.38-7.99 9.52-6.66 15.46 0 .1 0 .21.1.21 4.3 14.64 6.86 23.24 12.9 40.75 6.96-3.79 20.27-10.65 20.27-10.65 6.55-3.48 9.11-11.67 5.53-18.33L78.29 27.14c-3.48-6.55-11.57-9.01-18.12-5.63l-.61.31c-.42.2-.83.51-1.24.72zm98.19 116.51-17.3-19.25c-5.02-5.53-13.52-6.04-19.04-1.02 0 0-10.96 10.14-16.89 15.46 14.33 11.67 21.5 16.99 33.79 26.11.1 0 .1.1.2.1 5.12 3.28 11.98 2.35 16.79-1.02.41-.31.82-.61 1.23-.92l.51-.41c5.32-5.12 5.62-13.52.71-19.05z" fill="#578CFF"/></g></g></svg>